<?xml version="1.0" encoding="UTF-8" standalone="no"?>
<!-- Generator: Adobe Illustrator 16.0.0, SVG Export Plug-In . SVG Version: 6.00 Build 0)  -->

<svg
   xmlns:dc="http://purl.org/dc/elements/1.1/"
   xmlns:cc="http://creativecommons.org/ns#"
   xmlns:rdf="http://www.w3.org/1999/02/22-rdf-syntax-ns#"
   xmlns:svg="http://www.w3.org/2000/svg"
   xmlns="http://www.w3.org/2000/svg"
   xmlns:sodipodi="http://sodipodi.sourceforge.net/DTD/sodipodi-0.dtd"
   xmlns:inkscape="http://www.inkscape.org/namespaces/inkscape"
   version="1.1"
   id="Layer_1"
   x="0px"
   y="0px"
   width="880"
   height="880"
   viewBox="0 0 879.99988 880.00002"
   enable-background="new 0 0 2413.293 956.462"
   xml:space="preserve"
   inkscape:version="0.92.2 (5c3e80d, 2017-08-06)"
   sodipodi:docname="glider-transluscent.svg"
   inkscape:export-filename="/home/magnun/Dropbox/hackncast/logos/svg/hnc-logo-sem-moldura-invertido.png"
   inkscape:export-xdpi="90"
   inkscape:export-ydpi="90"><metadata
     id="metadata90"><rdf:RDF><cc:Work
         rdf:about=""><dc:format>image/svg+xml</dc:format><dc:type
           rdf:resource="http://purl.org/dc/dcmitype/StillImage" /><dc:title></dc:title></cc:Work></rdf:RDF></metadata><defs
     id="defs88" /><sodipodi:namedview
     pagecolor="#ffffff"
     bordercolor="#666666"
     borderopacity="1"
     objecttolerance="10"
     gridtolerance="10"
     guidetolerance="10"
     inkscape:pageopacity="0"
     inkscape:pageshadow="2"
     inkscape:window-width="1366"
     inkscape:window-height="713"
     id="namedview86"
     showgrid="false"
     showguides="false"
     inkscape:guide-bbox="true"
     inkscape:zoom="0.34807213"
     inkscape:cx="4.4292359"
     inkscape:cy="425.63078"
     inkscape:window-x="0"
     inkscape:window-y="27"
     inkscape:window-maximized="1"
     inkscape:current-layer="Layer_1"
     units="px"
     width="900mm"><sodipodi:guide
       orientation="0,1"
       position="2177.7096,844.65254"
       id="guide4545"
       inkscape:locked="false" /><sodipodi:guide
       orientation="0,1"
       position="1264.1058,97.680906"
       id="guide4547"
       inkscape:locked="false" /></sodipodi:namedview><g
     id="g987"
     transform="translate(5.61e-4,34.359998)"><path
       id="path4079"
       d="m 301.65721,729.38127 c 0,21.85462 -17.86998,39.72731 -39.75165,39.72731 H 115.13149 c -21.90331,0 -39.762472,-17.86999 -39.762472,-39.72731 V 582.56121 c 0,-21.89248 17.861867,-39.74353 39.762472,-39.74353 h 146.77407 c 21.88167,0 39.75165,17.85105 39.75165,39.74353 z"
       inkscape:connector-curvature="0"
       style="fill:#f2f2ea;fill-opacity:0.37681179;stroke-width:2.70511389" /><path
       id="path4081"
       d="m 552.62415,729.38127 c 0,21.85462 -17.90785,39.72731 -39.81927,39.72731 H 366.0308 c -21.85461,0 -39.73541,-17.86999 -39.73541,-39.72731 V 582.56121 c 0,-21.89248 17.8808,-39.74353 39.73541,-39.74353 h 146.77408 c 21.91142,0 39.81927,17.85105 39.81927,39.74353 z"
       inkscape:connector-curvature="0"
       style="fill:#f2f2ea;fill-opacity:0.37681179;stroke-width:2.70511389" /><path
       id="path4083"
       d="m 803.15828,729.38127 c 0,21.85462 -17.8781,39.72731 -39.75165,39.72731 H 616.61362 c -21.86543,0 -39.76247,-17.86999 -39.76247,-39.72731 V 582.56121 c 0,-21.89248 17.89704,-39.74353 39.76247,-39.74353 h 146.79301 c 21.87355,0 39.75165,17.85105 39.75165,39.74353 z"
       inkscape:connector-curvature="0"
       style="fill:#f2f2ea;fill-opacity:0.37681179;stroke-width:2.70511389" /><path
       id="path4085"
       d="m 804.62986,479.04191 c 0,21.83568 -17.86998,39.76247 -39.75435,39.76247 H 618.07439 c -21.86274,0 -39.78953,-17.92679 -39.78953,-39.76247 V 332.22186 c 0,-21.81675 17.92679,-39.76247 39.78953,-39.76247 h 146.80112 c 21.88437,0 39.75435,17.94572 39.75435,39.76247 z"
       inkscape:connector-curvature="0"
       style="fill:#f2f2ea;fill-opacity:0.37681179;stroke-width:2.70511389" /><path
       id="path4087"
       d="m 553.46003,228.68091 c 0,21.91143 -17.8808,39.83822 -39.7273,39.83822 H 366.97218 c -21.93847,0 -39.81116,-17.92679 -39.81116,-39.83822 V 81.990701 c 0,-21.927653 17.86999,-39.819277 39.81116,-39.819277 h 146.76326 c 21.84379,0 39.7273,17.888919 39.7273,39.819277 V 228.68091 Z"
       inkscape:connector-curvature="0"
       style="fill:#f2f2ea;fill-opacity:0.37681179;stroke-width:2.70511389" /></g></svg>