<?xml version="1.0" encoding="UTF-8" standalone="no"?>
<!-- Generator: Adobe Illustrator 16.0.0, SVG Export Plug-In . SVG Version: 6.00 Build 0)  -->

<svg
   xmlns:dc="http://purl.org/dc/elements/1.1/"
   xmlns:cc="http://creativecommons.org/ns#"
   xmlns:rdf="http://www.w3.org/1999/02/22-rdf-syntax-ns#"
   xmlns:svg="http://www.w3.org/2000/svg"
   xmlns="http://www.w3.org/2000/svg"
   xmlns:sodipodi="http://sodipodi.sourceforge.net/DTD/sodipodi-0.dtd"
   xmlns:inkscape="http://www.inkscape.org/namespaces/inkscape"
   version="1.1"
   id="Layer_1"
   x="0px"
   y="0px"
   width="880"
   height="880"
   viewBox="0 0 879.99988 880.00002"
   enable-background="new 0 0 2413.293 956.462"
   xml:space="preserve"
   inkscape:version="0.91 r13725"
   sodipodi:docname="hnc-logo-sem-moldura-invertido.svg"
   inkscape:export-filename="/home/magnun/Dropbox/hackncast/logos/svg/hnc-logo-sem-moldura-invertido.png"
   inkscape:export-xdpi="90"
   inkscape:export-ydpi="90"><metadata
     id="metadata90"><rdf:RDF><cc:Work
         rdf:about=""><dc:format>image/svg+xml</dc:format><dc:type
           rdf:resource="http://purl.org/dc/dcmitype/StillImage" /><dc:title /></cc:Work></rdf:RDF></metadata><defs
     id="defs88" /><sodipodi:namedview
     pagecolor="#ffffff"
     bordercolor="#666666"
     borderopacity="1"
     objecttolerance="10"
     gridtolerance="10"
     guidetolerance="10"
     inkscape:pageopacity="0"
     inkscape:pageshadow="2"
     inkscape:window-width="1600"
     inkscape:window-height="861"
     id="namedview86"
     showgrid="false"
     showguides="false"
     inkscape:guide-bbox="true"
     inkscape:zoom="0.24612416"
     inkscape:cx="-1541.3776"
     inkscape:cy="866.10961"
     inkscape:window-x="1600"
     inkscape:window-y="0"
     inkscape:window-maximized="1"
     inkscape:current-layer="Layer_1"
     units="px"
     width="900mm"><sodipodi:guide
       orientation="0,1"
       position="2177.7096,844.65254"
       id="guide4545" /><sodipodi:guide
       orientation="0,1"
       position="1264.1058,97.680906"
       id="guide4547" /></sodipodi:namedview><g
     id="g4151"><path
       d="m 667.98544,585.7795 c 63.308,-46.616 98.152,-109.231 98.152,-176.348 0,-67.088 -34.845,-129.738 -98.152,-176.351 -61.163,-45.04 -142.152,-69.837 -227.986,-69.837 -85.834,0 -166.827,24.798 -227.986,69.837 -63.311,46.612 -98.173,109.262 -98.173,176.351 0,44.655 15.862,88.325 45.883,126.318 22.727,28.744 53.174,53.8 89.082,73.344 6.376,3.475 10.911,11.919 9.999,19.138 l -14.352,112.686 c -2.732,21.608 7.959,27.092 23.924,12.311 l 100.303,-93.046 c 5.309,-4.941 15.463,-8.086 22.678,-7.253 16.065,1.775 32.323,2.684 48.643,2.684 85.833,0 166.822,-24.802 227.985,-69.834 z"
       id="path4075"
       inkscape:connector-curvature="0"
       style="fill:#369ecd;fill-opacity:1" /><path
       id="path4079"
       d="m 388.85844,525.3175 c 0,8.079 -6.606,14.686 -14.695,14.686 l -54.258,0 c -8.097,0 -14.699,-6.606 -14.699,-14.686 l 0,-54.275 c 0,-8.093 6.603,-14.692 14.699,-14.692 l 54.258,0 c 8.089,0 14.695,6.599 14.695,14.692 l 0,54.275 z"
       inkscape:connector-curvature="0"
       style="fill:#f2f2ea;fill-opacity:1" /><path
       id="path4081"
       d="m 481.63344,525.3175 c 0,8.079 -6.62,14.686 -14.72,14.686 l -54.258,0 c -8.079,0 -14.689,-6.606 -14.689,-14.686 l 0,-54.275 c 0,-8.093 6.61,-14.692 14.689,-14.692 l 54.258,0 c 8.1,0 14.72,6.599 14.72,14.692 l 0,54.275 z"
       inkscape:connector-curvature="0"
       style="fill:#f2f2ea;fill-opacity:1" /><path
       id="path4083"
       d="m 574.24844,525.3175 c 0,8.079 -6.609,14.686 -14.695,14.686 l -54.265,0 c -8.083,0 -14.699,-6.606 -14.699,-14.686 l 0,-54.275 c 0,-8.093 6.616,-14.692 14.699,-14.692 l 54.265,0 c 8.086,0 14.695,6.599 14.695,14.692 l 0,54.275 z"
       inkscape:connector-curvature="0"
       style="fill:#f2f2ea;fill-opacity:1" /><path
       id="path4085"
       d="m 574.79244,432.7745 c 0,8.072 -6.606,14.699 -14.696,14.699 l -54.268,0 c -8.082,0 -14.709,-6.627 -14.709,-14.699 l 0,-54.275 c 0,-8.065 6.627,-14.699 14.709,-14.699 l 54.268,0 c 8.09,0 14.696,6.634 14.696,14.699 l 0,54.275 z"
       inkscape:connector-curvature="0"
       style="fill:#f2f2ea;fill-opacity:1" /><path
       id="path4087"
       d="m 481.94244,340.2235 c 0,8.1 -6.61,14.727 -14.686,14.727 l -54.253,0 c -8.11,0 -14.717,-6.627 -14.717,-14.727 l 0,-54.227 c 0,-8.106 6.606,-14.72 14.717,-14.72 l 54.254,0 c 8.075,0 14.686,6.613 14.686,14.72 l 0,54.227 z"
       inkscape:connector-curvature="0"
       style="fill:#f2f2ea;fill-opacity:1" /></g></svg>